<mxfile host="Electron" modified="2024-05-31T04:33:28.211Z" agent="Mozilla/5.0 (Windows NT 10.0; Win64; x64) AppleWebKit/537.36 (KHTML, like Gecko) draw.io/23.0.2 Chrome/120.0.6099.109 Electron/28.1.0 Safari/537.36" etag="ybEZyL5o1iZtjkQCD0rB" version="23.0.2" type="device">
  <diagram name="Page-1" id="FR1DQZrXf3UpOSFAqk2_">
    <mxGraphModel dx="1166" dy="801" grid="1" gridSize="10" guides="1" tooltips="1" connect="1" arrows="1" fold="1" page="1" pageScale="1" pageWidth="1600" pageHeight="900" math="0" shadow="0">
      <root>
        <mxCell id="0" />
        <mxCell id="1" parent="0" />
        <mxCell id="gTnF-xwUdj9imKCPup9p-3" style="edgeStyle=orthogonalEdgeStyle;rounded=0;orthogonalLoop=1;jettySize=auto;html=1;exitX=1;exitY=0.5;exitDx=0;exitDy=0;entryX=0;entryY=0.5;entryDx=0;entryDy=0;" edge="1" parent="1" source="gTnF-xwUdj9imKCPup9p-1" target="gTnF-xwUdj9imKCPup9p-2">
          <mxGeometry relative="1" as="geometry" />
        </mxCell>
        <mxCell id="gTnF-xwUdj9imKCPup9p-4" value="electrical power" style="edgeLabel;html=1;align=center;verticalAlign=middle;resizable=0;points=[];" vertex="1" connectable="0" parent="gTnF-xwUdj9imKCPup9p-3">
          <mxGeometry x="-0.2437" y="1" relative="1" as="geometry">
            <mxPoint x="12" y="1" as="offset" />
          </mxGeometry>
        </mxCell>
        <mxCell id="gTnF-xwUdj9imKCPup9p-1" value="Battery" style="rounded=0;whiteSpace=wrap;html=1;" vertex="1" parent="1">
          <mxGeometry x="110" y="150" width="110" height="30" as="geometry" />
        </mxCell>
        <mxCell id="gTnF-xwUdj9imKCPup9p-6" style="edgeStyle=orthogonalEdgeStyle;rounded=0;orthogonalLoop=1;jettySize=auto;html=1;exitX=1;exitY=0.5;exitDx=0;exitDy=0;entryX=0;entryY=0.5;entryDx=0;entryDy=0;" edge="1" parent="1" source="gTnF-xwUdj9imKCPup9p-2" target="gTnF-xwUdj9imKCPup9p-5">
          <mxGeometry relative="1" as="geometry" />
        </mxCell>
        <mxCell id="gTnF-xwUdj9imKCPup9p-7" value="mechanical power" style="edgeLabel;html=1;align=center;verticalAlign=middle;resizable=0;points=[];" vertex="1" connectable="0" parent="gTnF-xwUdj9imKCPup9p-6">
          <mxGeometry x="-0.3075" y="-1" relative="1" as="geometry">
            <mxPoint x="8" y="-1" as="offset" />
          </mxGeometry>
        </mxCell>
        <mxCell id="gTnF-xwUdj9imKCPup9p-2" value="motor" style="rounded=0;whiteSpace=wrap;html=1;" vertex="1" parent="1">
          <mxGeometry x="340" y="150" width="110" height="30" as="geometry" />
        </mxCell>
        <mxCell id="gTnF-xwUdj9imKCPup9p-8" style="edgeStyle=orthogonalEdgeStyle;rounded=0;orthogonalLoop=1;jettySize=auto;html=1;exitX=1;exitY=0.5;exitDx=0;exitDy=0;" edge="1" parent="1" source="gTnF-xwUdj9imKCPup9p-5">
          <mxGeometry relative="1" as="geometry">
            <mxPoint x="780" y="164.75" as="targetPoint" />
            <mxPoint x="690" y="164.75" as="sourcePoint" />
          </mxGeometry>
        </mxCell>
        <mxCell id="gTnF-xwUdj9imKCPup9p-9" value="&quot;lifting power&quot;" style="edgeLabel;html=1;align=center;verticalAlign=middle;resizable=0;points=[];" vertex="1" connectable="0" parent="gTnF-xwUdj9imKCPup9p-8">
          <mxGeometry x="-0.3193" relative="1" as="geometry">
            <mxPoint x="6" as="offset" />
          </mxGeometry>
        </mxCell>
        <mxCell id="gTnF-xwUdj9imKCPup9p-5" value="propeller" style="rounded=0;whiteSpace=wrap;html=1;" vertex="1" parent="1">
          <mxGeometry x="570" y="150" width="110" height="30" as="geometry" />
        </mxCell>
      </root>
    </mxGraphModel>
  </diagram>
</mxfile>
